<?xml version="1.0" encoding="UTF-8"?>
<svg xmlns="http://www.w3.org/2000/svg" width="400" height="400" viewBox="0 0 400 400">
  <defs>
    <linearGradient id="bgGrad" x1="0%" y1="0%" x2="100%" y2="100%">
      <stop offset="0%" stop-color="#ffffff"/>
      <stop offset="100%" stop-color="#fff0f0"/>
    </linearGradient>
    <linearGradient id="circleGrad" x1="0%" y1="0%" x2="100%" y2="100%">
      <stop offset="0%" stop-color="#e53935"/>
      <stop offset="100%" stop-color="#b71c1c"/>
    </linearGradient>
    <filter id="shadow">
      <feDropShadow dx="0" dy="4" stdDeviation="8" flood-color="#d32f2f" flood-opacity="0.25"/>
    </filter>
  </defs>
  <rect width="400" height="400" fill="url(#bgGrad)"/>
  <circle cx="50" cy="50" r="60" fill="#d32f2f" opacity="0.05"/>
  <circle cx="360" cy="360" r="80" fill="#d32f2f" opacity="0.05"/>
  <circle cx="200" cy="185" r="120" fill="url(#circleGrad)" filter="url(#shadow)"/>
  <g opacity="0.6">
    <rect x="52" y="165" width="6" height="40" rx="3" fill="#d32f2f"/>
    <rect x="64" y="150" width="6" height="70" rx="3" fill="#d32f2f"/>
    <rect x="76" y="170" width="6" height="30" rx="3" fill="#d32f2f"/>
  </g>
  <g opacity="0.6">
    <rect x="318" y="165" width="6" height="40" rx="3" fill="#d32f2f"/>
    <rect x="306" y="150" width="6" height="70" rx="3" fill="#d32f2f"/>
    <rect x="294" y="170" width="6" height="30" rx="3" fill="#d32f2f"/>
  </g>
  <rect x="185" y="140" width="30" height="50" rx="15" fill="white" opacity="0.95"/>
  <path d="M170 185 Q170 215 200 215 Q230 215 230 185" stroke="white" stroke-width="4" fill="none" stroke-linecap="round"/>
  <line x1="200" y1="215" x2="200" y2="230" stroke="white" stroke-width="4" stroke-linecap="round"/>
  <line x1="188" y1="230" x2="212" y2="230" stroke="white" stroke-width="4" stroke-linecap="round"/>
  <text x="200" y="340" font-family="'Segoe UI', Arial, sans-serif" font-size="32" font-weight="700" fill="#d32f2f" text-anchor="middle" letter-spacing="1">FonoApp</text>
  <text x="200" y="368" font-family="'Segoe UI', Arial, sans-serif" font-size="13" fill="#888" text-anchor="middle" letter-spacing="0.5">Fonoaudiología interactiva</text>
</svg>
